<svg width="145" height="18" viewBox="0 0 145 18" fill="none" xmlns="http://www.w3.org/2000/svg">
<path d="M11.4325 14.3093H0.875V1.11249H11.4325V3.02308H3.00225V6.72607H11.137V8.61696H3.00225V12.3987H11.4325V14.3093Z" fill="white"/>
<path d="M23.9028 17.0866H21.2241L19.3135 14.5063C15.315 14.3881 12.6954 11.729 12.6954 7.71091C12.6954 3.59428 15.4332 0.915527 19.5695 0.915527C23.7452 0.915527 26.4634 3.59428 26.4634 7.71091C26.4634 11.1184 24.6119 13.5214 21.618 14.2699L23.9028 17.0866ZM19.5695 12.4578C22.7013 12.4578 24.218 11.0003 24.218 7.71091C24.218 4.42155 22.7013 2.94429 19.5695 2.94429C16.4377 2.94429 14.9408 4.42155 14.9408 7.71091C14.9408 11.0003 16.4377 12.4578 19.5695 12.4578Z" fill="white"/>
<path d="M34.141 14.5063C30.2016 14.5063 27.9562 12.4184 27.9562 8.83362V1.11249H30.0637V8.69574C30.0637 11.3548 31.2455 12.4578 34.141 12.4578C37.0364 12.4578 38.2182 11.3548 38.2182 8.69574V1.11249H40.3454V8.83362C40.3454 12.4184 38.1 14.5063 34.141 14.5063Z" fill="white"/>
<path d="M44.3577 14.3093H42.2305V1.11249H44.3577V14.3093Z" fill="white"/>
<path d="M52.8866 14.3093H50.779V3.02308H45.5791V1.11249H58.0668V3.02308H52.8866V14.3093Z" fill="white"/>
<path d="M66.0869 14.3093H63.9794V9.75937L58.1885 1.11249H60.7885L63.9006 5.80032L65.0036 7.47455H65.1612L66.2445 5.80032L69.3369 1.11249H71.9566L66.0869 9.79876V14.3093Z" fill="white"/>
<path d="M82.5631 14.5063C78.4662 14.5063 75.748 11.8275 75.748 7.71091C75.748 3.59428 78.4662 0.915527 82.5631 0.915527C86.2858 0.915527 88.8858 2.8852 88.8858 6.03668V6.31244H86.5419V6.03668C86.5419 4.02761 85.2616 2.94429 82.5828 2.94429C79.4904 2.94429 77.9935 4.42155 77.9935 7.71091C77.9935 11.0003 79.4904 12.4578 82.5828 12.4578C85.2616 12.4578 86.5419 11.3942 86.5419 9.36543V9.10938H88.8858V9.36543C88.8858 12.5366 86.3055 14.5063 82.5631 14.5063Z" fill="white"/>
<path d="M92.5802 14.3093H90.4529V1.11249H92.5802V14.3093Z" fill="white"/>
<path d="M96.6772 14.3093H94.55V1.11249H101.404C104.398 1.11249 106.25 2.53066 106.25 4.99275C106.25 7.17909 104.812 8.51847 102.33 8.65635V8.79423C103.354 9.06998 103.827 9.66088 104.3 10.4881L106.506 14.3093H104.064L101.956 10.6654C101.365 9.62149 100.754 9.18816 99.0999 9.18816H96.6772V14.3093ZM96.6772 3.02308V7.55333H101.385C103.157 7.55333 104.044 6.94273 104.044 5.28821C104.044 3.67307 103.157 3.02308 101.385 3.02308H96.6772Z" fill="white"/>
<path d="M114.205 14.5063C110.108 14.5063 107.39 11.8275 107.39 7.71091C107.39 3.59428 110.108 0.915527 114.205 0.915527C117.928 0.915527 120.528 2.8852 120.528 6.03668V6.31244H118.184V6.03668C118.184 4.02761 116.903 2.94429 114.225 2.94429C111.132 2.94429 109.635 4.42155 109.635 7.71091C109.635 11.0003 111.132 12.4578 114.225 12.4578C116.903 12.4578 118.184 11.3942 118.184 9.36543V9.10938H120.528V9.36543C120.528 12.5366 117.947 14.5063 114.205 14.5063Z" fill="white"/>
<path d="M132.357 14.3093H122.095V1.11249H124.222V12.3987H132.357V14.3093Z" fill="white"/>
<path d="M144.289 14.3093H133.732V1.11249H144.289V3.02308H135.859V6.72607H143.994V8.61696H135.859V12.3987H144.289V14.3093Z" fill="white"/>
</svg>
