<svg width="25" height="25" viewBox="0 0 25 25" fill="none" xmlns="http://www.w3.org/2000/svg">
<rect x="0.5" y="0.5" width="24" height="24" rx="12" fill="#6709F5"/>
<path d="M11.7209 12.957H7.82476C7.60398 12.957 7.41904 12.8747 7.26995 12.7101C7.12086 12.5456 7.04605 12.3421 7.04553 12.0999C7.04502 11.8576 7.11982 11.6541 7.26995 11.4896C7.42008 11.325 7.60502 11.2427 7.82476 11.2427H11.7209V6.957C11.7209 6.71414 11.7957 6.51071 11.9453 6.34671C12.0949 6.18271 12.2798 6.10043 12.5001 6.09986C12.7203 6.09929 12.9055 6.18157 13.0557 6.34671C13.2058 6.51186 13.2803 6.71528 13.2793 6.957V11.2427H17.1754C17.3962 11.2427 17.5814 11.325 17.731 11.4896C17.8806 11.6541 17.9551 11.8576 17.9546 12.0999C17.9541 12.3421 17.8793 12.5459 17.7302 12.711C17.5811 12.8761 17.3962 12.9581 17.1754 12.957H13.2793V17.2427C13.2793 17.4856 13.2045 17.6893 13.0549 17.8539C12.9053 18.0184 12.7203 18.1004 12.5001 18.0999C12.2798 18.0993 12.0949 18.017 11.9453 17.853C11.7957 17.689 11.7209 17.4856 11.7209 17.2427V12.957Z" fill="white"/>
</svg>
