<svg width="22" height="21" viewBox="0 0 22 21" fill="none" xmlns="http://www.w3.org/2000/svg">
<path d="M19.1265 5.73633H3.12646C2.0219 5.73633 1.12646 6.63176 1.12646 7.73633V17.7363C1.12646 18.8409 2.0219 19.7363 3.12646 19.7363H19.1265C20.231 19.7363 21.1265 18.8409 21.1265 17.7363V7.73633C21.1265 6.63176 20.231 5.73633 19.1265 5.73633Z" stroke="white" stroke-width="1.5" stroke-linecap="round" stroke-linejoin="round"/>
<path d="M15.1265 19.7363V3.73633C15.1265 3.2059 14.9158 2.69719 14.5407 2.32211C14.1656 1.94704 13.6569 1.73633 13.1265 1.73633H9.12646C8.59603 1.73633 8.08732 1.94704 7.71225 2.32211C7.33718 2.69719 7.12646 3.2059 7.12646 3.73633V19.7363" stroke="white" stroke-width="1.5" stroke-linecap="round" stroke-linejoin="round"/>
</svg>
