<svg width="16" height="15" viewBox="0 0 16 15" fill="none" xmlns="http://www.w3.org/2000/svg">
<path fill-rule="evenodd" clip-rule="evenodd" d="M10.4136 1.49314C11.2154 1.81228 11.4607 2.92372 11.7886 3.28096C12.1164 3.63821 12.5856 3.75968 12.8452 3.75968C14.225 3.75968 15.3436 4.87826 15.3436 6.25723V10.8578C15.3436 12.7075 13.8431 14.208 11.9934 14.208H4.00692C2.15638 14.208 0.656738 12.7075 0.656738 10.8578V6.25723C0.656738 4.87826 1.77532 3.75968 3.15509 3.75968C3.41389 3.75968 3.88308 3.63821 4.21175 3.28096C4.53962 2.92372 4.78414 1.81228 5.58596 1.49314C6.38857 1.174 9.61174 1.174 10.4136 1.49314Z" stroke="#B2B2B2" stroke-width="1.2" stroke-linecap="round" stroke-linejoin="round"/>
<path d="M12.3629 5.81894H12.37" stroke="#B2B2B2" stroke-width="1.2" stroke-linecap="round" stroke-linejoin="round"/>
<path fill-rule="evenodd" clip-rule="evenodd" d="M10.5237 8.69905C10.5237 7.30499 9.39401 6.17529 7.99995 6.17529C6.60589 6.17529 5.4762 7.30499 5.4762 8.69905C5.4762 10.0931 6.60589 11.2228 7.99995 11.2228C9.39401 11.2228 10.5237 10.0931 10.5237 8.69905Z" stroke="#B2B2B2" stroke-width="1.2" stroke-linecap="round" stroke-linejoin="round"/>
</svg>
