<svg width="20" height="20" viewBox="0 0 20 20" fill="none" xmlns="http://www.w3.org/2000/svg">
<g clip-path="url(#clip0_795_13730)">
<path d="M7.08333 15.8337H6.66666C3.33333 15.8337 1.66666 15.0003 1.66666 10.8337V6.66699C1.66666 3.33366 3.33333 1.66699 6.66666 1.66699H13.3333C16.6667 1.66699 18.3333 3.33366 18.3333 6.66699V10.8337C18.3333 14.167 16.6667 15.8337 13.3333 15.8337H12.9167C12.6583 15.8337 12.4083 15.9587 12.25 16.167L11 17.8337C10.45 18.567 9.55 18.567 9 17.8337L7.75 16.167C7.61666 15.9837 7.30833 15.8337 7.08333 15.8337Z" stroke="#1E1E1E" stroke-width="1.5" stroke-miterlimit="10" stroke-linecap="round" stroke-linejoin="round"/>
<path d="M5.83334 6.66699H14.1667M5.83334 10.8337H10.8333" stroke="#1E1E1E" stroke-width="1.5" stroke-linecap="round" stroke-linejoin="round"/>
</g>
<defs>
<clipPath id="clip0_795_13730">
<rect width="20" height="20" fill="white"/>
</clipPath>
</defs>
</svg>
