<svg width="9" height="9" viewBox="0 0 9 9" fill="none" xmlns="http://www.w3.org/2000/svg">
<path d="M4.94097 4.43315L8.44751 0.760154C8.51784 0.675531 8.55489 0.566109 8.55119 0.453983C8.54749 0.341856 8.50331 0.235377 8.42757 0.156044C8.35183 0.0767116 8.25018 0.0304347 8.14313 0.0265573C8.03609 0.0226798 7.93163 0.0614911 7.85084 0.135154L4.34429 3.80815L0.835828 0.130154C0.755361 0.051119 0.648702 0.00796636 0.538407 0.00982315C0.428112 0.01168 0.322832 0.0583999 0.244831 0.140103C0.166831 0.221805 0.122227 0.332084 0.120455 0.447614C0.118682 0.563144 0.159879 0.674868 0.235333 0.759154L3.74666 4.43215L0.235333 8.10515C0.191585 8.14504 0.156138 8.19393 0.131195 8.24878C0.106251 8.30363 0.0923451 8.36326 0.0903406 8.42398C0.088336 8.4847 0.0982761 8.5452 0.119543 8.60172C0.140809 8.65824 0.172947 8.70958 0.21396 8.75254C0.254972 8.7955 0.303983 8.82916 0.357944 8.85144C0.411905 8.87372 0.469663 8.88413 0.527629 8.88203C0.585595 8.87993 0.642529 8.86536 0.694892 8.83923C0.747255 8.81311 0.793928 8.77598 0.832009 8.73015L4.34333 5.05715L7.84988 8.73015C7.93067 8.80382 8.03513 8.84263 8.14218 8.83875C8.24923 8.83487 8.35088 8.78859 8.42662 8.70926C8.50235 8.62993 8.54653 8.52345 8.55024 8.41132C8.55394 8.2992 8.51688 8.18978 8.44656 8.10515L4.94097 4.43315Z" fill="#222222"/>
</svg>
