<svg width="21" height="21" viewBox="0 0 21 21" fill="none" xmlns="http://www.w3.org/2000/svg">
<path d="M10.25 15.6667C12.0909 15.6667 13.5833 14.1743 13.5833 12.3333C13.5833 10.4924 12.0909 9 10.25 9C8.40901 9 6.91663 10.4924 6.91663 12.3333C6.91663 14.1743 8.40901 15.6667 10.25 15.6667Z" stroke="#D44000" stroke-width="1.2" stroke-miterlimit="10" stroke-linecap="round" stroke-linejoin="round"/>
<path d="M8.94995 12.4168L9.49162 12.9584C9.64995 13.1168 9.90828 13.1168 10.0666 12.9668L11.55 11.6001" stroke="#D44000" stroke-width="1.2" stroke-linecap="round" stroke-linejoin="round"/>
<path d="M6.91673 18.8333H13.5834C16.9334 18.8333 17.5334 17.4917 17.7084 15.8583L18.3334 9.19167C18.5584 7.15833 17.9751 5.5 14.4167 5.5H6.08339C2.52506 5.5 1.94173 7.15833 2.16673 9.19167L2.79173 15.8583C2.96673 17.4917 3.56673 18.8333 6.91673 18.8333Z" stroke="#D44000" stroke-width="1.2" stroke-miterlimit="10" stroke-linecap="round" stroke-linejoin="round"/>
<path d="M6.91663 5.49984V4.83317C6.91663 3.35817 6.91663 2.1665 9.58329 2.1665H10.9166C13.5833 2.1665 13.5833 3.35817 13.5833 4.83317V5.49984" stroke="#D44000" stroke-width="1.2" stroke-miterlimit="10" stroke-linecap="round" stroke-linejoin="round"/>
<path d="M18.2917 9.6665C16.85 10.7165 15.25 11.4498 13.5917 11.8665" stroke="#D44000" stroke-width="1.2" stroke-miterlimit="10" stroke-linecap="round" stroke-linejoin="round"/>
<path d="M2.43335 9.8916C3.82502 10.8416 5.34168 11.5166 6.91668 11.8999" stroke="#D44000" stroke-width="1.2" stroke-miterlimit="10" stroke-linecap="round" stroke-linejoin="round"/>
</svg>
