<svg width="21" height="21" viewBox="0 0 21 21" fill="none" xmlns="http://www.w3.org/2000/svg">
<path d="M19.025 6.13318L16.2167 17.4082C16.0167 18.2499 15.2667 18.8332 14.4 18.8332H3.45003C2.19169 18.8332 1.29171 17.5998 1.66671 16.3915L5.17503 5.12488C5.4167 4.34154 6.14171 3.7998 6.95838 3.7998H17.2084C18 3.7998 18.6584 4.28314 18.9334 4.94981C19.0917 5.30814 19.125 5.71651 19.025 6.13318Z" stroke="#F30055" stroke-width="1.2" stroke-miterlimit="10"/>
<path d="M14.0834 18.8333H18.0667C19.1417 18.8333 19.9834 17.925 19.9084 16.85L19.0834 5.5" stroke="#F30055" stroke-width="1.2" stroke-miterlimit="10" stroke-linecap="round" stroke-linejoin="round"/>
<path d="M8.81665 5.81675L9.68332 2.2168" stroke="#F30055" stroke-width="1.2" stroke-miterlimit="10" stroke-linecap="round" stroke-linejoin="round"/>
<path d="M14.4 5.82513L15.1834 2.2085" stroke="#F30055" stroke-width="1.2" stroke-miterlimit="10" stroke-linecap="round" stroke-linejoin="round"/>
<path d="M7.16663 10.5H13.8333" stroke="#F30055" stroke-width="1.2" stroke-miterlimit="10" stroke-linecap="round" stroke-linejoin="round"/>
<path d="M6.33337 13.8335H13" stroke="#F30055" stroke-width="1.2" stroke-miterlimit="10" stroke-linecap="round" stroke-linejoin="round"/>
</svg>
