<svg width="25" height="25" viewBox="0 0 25 25" fill="none" xmlns="http://www.w3.org/2000/svg">
<path d="M2.5 9H13.5" stroke="#AFAFAF" stroke-width="1.2" stroke-miterlimit="10" stroke-linecap="round" stroke-linejoin="round"/>
<path d="M6.5 17H8.5" stroke="#AFAFAF" stroke-width="1.2" stroke-miterlimit="10" stroke-linecap="round" stroke-linejoin="round"/>
<path d="M11 17H15" stroke="#AFAFAF" stroke-width="1.2" stroke-miterlimit="10" stroke-linecap="round" stroke-linejoin="round"/>
<path d="M22.5 11.83V16.61C22.5 20.12 21.61 21 18.06 21H6.94C3.39 21 2.5 20.12 2.5 16.61V8.39001C2.5 4.88001 3.39 4 6.94 4H13.78" stroke="#AFAFAF" stroke-width="1.2" stroke-linecap="round" stroke-linejoin="round"/>
<path d="M17.5 3.75H20.63C21.32 3.75 21.88 4.38 21.88 5C21.88 5.69 21.32 6.25 20.63 6.25H17.5V3.75Z" stroke="#AFAFAF" stroke-width="1.2" stroke-miterlimit="10" stroke-linecap="round" stroke-linejoin="round"/>
<path d="M17.5 6.25H21.07C21.86 6.25 22.5 6.81 22.5 7.5C22.5 8.19 21.86 8.75 21.07 8.75H17.5V6.25Z" stroke="#AFAFAF" stroke-width="1.2" stroke-miterlimit="10" stroke-linecap="round" stroke-linejoin="round"/>
<path d="M19.26 8.75V10" stroke="#AFAFAF" stroke-width="1.2" stroke-miterlimit="10" stroke-linecap="round" stroke-linejoin="round"/>
<path d="M19.26 2.5V3.75" stroke="#AFAFAF" stroke-width="1.2" stroke-miterlimit="10" stroke-linecap="round" stroke-linejoin="round"/>
<path d="M18.69 3.75H16.5" stroke="#AFAFAF" stroke-width="1.2" stroke-miterlimit="10" stroke-linecap="round" stroke-linejoin="round"/>
<path d="M18.69 8.75H16.5" stroke="#AFAFAF" stroke-width="1.2" stroke-miterlimit="10" stroke-linecap="round" stroke-linejoin="round"/>
</svg>
