<svg width="20" height="20" viewBox="0 0 20 20" fill="none" xmlns="http://www.w3.org/2000/svg">
<path d="M3.81331 11.8953L3.8133 11.8953C3.80074 11.9078 3.78806 11.9205 3.77531 11.9332C3.61906 12.0888 3.45105 12.2561 3.33204 12.4663C3.21302 12.6765 3.15597 12.9067 3.1029 13.1208C3.09857 13.1382 3.09427 13.1556 3.08996 13.1728L2.34951 16.1346C2.34689 16.1451 2.34421 16.1558 2.34149 16.1666C2.30367 16.3174 2.25729 16.5023 2.24165 16.6622C2.22397 16.8429 2.22239 17.1994 2.51149 17.4885C2.80058 17.7776 3.15709 17.776 3.3378 17.7584C3.49775 17.7427 3.68261 17.6963 3.8334 17.6585C3.84423 17.6558 3.85489 17.6531 3.86535 17.6505L6.82717 16.91C6.8444 16.9057 6.86176 16.9014 6.87923 16.8971C7.09329 16.844 7.32346 16.787 7.53367 16.668C7.74387 16.549 7.91121 16.3809 8.06684 16.2247C8.07955 16.2119 8.09217 16.1993 8.10474 16.1867L15.9911 8.30031L16.0228 8.26867C16.3288 7.96266 16.6095 7.68209 16.8071 7.42314C17.0246 7.13798 17.2108 6.79279 17.2108 6.35577C17.2108 5.91874 17.0246 5.57355 16.8071 5.2884C16.6095 5.02944 16.3288 4.74887 16.0228 4.44286L15.9911 4.41123L15.5888 4.00888L15.5572 3.97726C15.2511 3.67117 14.9706 3.39052 14.7116 3.19295C14.4264 2.97538 14.0813 2.78921 13.6442 2.78921C13.2072 2.78921 12.862 2.97538 12.5769 3.19295C12.3179 3.39052 12.0373 3.67115 11.7313 3.97723C11.7208 3.98775 11.7103 3.9983 11.6997 4.00888L3.81331 11.8953Z" stroke="#1E1E1E" stroke-width="1.5"/>
<path d="M10.875 5.125L14.875 9.125" stroke="#1E1E1E" stroke-width="1.5"/>
</svg>
