<svg width="16" height="17" viewBox="0 0 16 17" fill="none" xmlns="http://www.w3.org/2000/svg">
<path fill-rule="evenodd" clip-rule="evenodd" d="M1.1183 6.8335L5.25992 14.007C6.54292 16.2292 9.75041 16.2292 11.0334 14.007L15.175 6.8335C16.458 4.61127 14.8543 1.8335 12.2883 1.8335H4.00505C1.43905 1.8335 -0.164695 4.61128 1.1183 6.8335ZM9.87875 13.3403C9.10895 14.6736 7.18441 14.6736 6.41462 13.3403L6.30785 13.1554L6.31073 12.9852C6.32227 12.3019 6.50867 11.633 6.85215 11.0422L8.05122 8.97983L9.40621 11.3105C9.66388 11.7537 9.83395 12.2423 9.90722 12.7497L9.96968 13.1828L9.87875 13.3403ZM10.9533 11.479L12.9116 8.08723C12.5183 8.1783 12.1147 8.2247 11.7087 8.2247H9.15448L10.5589 10.6403C10.7148 10.9085 10.8467 11.1892 10.9533 11.479ZM13.9695 6.25478L14.0203 6.16683C14.7901 4.8335 13.8279 3.16683 12.2883 3.16683H11.8903L11.4565 3.54501C11.1269 3.83232 10.8466 4.17174 10.6269 4.54974L9.26548 6.89134H11.7087C12.2848 6.89134 12.8541 6.7669 13.3776 6.52654L13.9695 6.25478ZM9.97035 3.16683C9.78615 3.39016 9.62015 3.62848 9.47415 3.87958L8.05122 6.32708L6.68835 3.98296C6.5195 3.69253 6.32396 3.41937 6.10467 3.16683H9.97035ZM4.10278 3.16683H4.00505C2.46545 3.16683 1.5032 4.8335 2.273 6.16684L2.32775 6.26165L2.919 6.53112C3.43983 6.7685 4.00553 6.89134 4.57789 6.89134H6.83695L5.53567 4.65312C5.28235 4.21741 4.94897 3.8335 4.55308 3.5216L4.10278 3.16683ZM3.38279 8.08903L5.25947 11.3396C5.37312 11.0045 5.52025 10.6803 5.69945 10.3721L6.94795 8.2247H4.57789C4.17454 8.2247 3.77366 8.1789 3.38279 8.08903Z" fill="#9146FF"/>
</svg>
