<svg width="15" height="15" viewBox="0 0 15 15" fill="none" xmlns="http://www.w3.org/2000/svg">
<path d="M13.0447 6.28099L13.3888 12.0502C13.4005 12.2077 13.3247 12.3127 13.2838 12.3593C13.2372 12.4118 13.138 12.4935 12.9747 12.4935H11.3822L12.6422 6.28099H13.0447ZM13.6863 4.03516L13.6805 4.04682C13.6922 4.18682 13.6805 4.33266 13.6455 4.47849L9.34634 12.371C9.20634 12.9602 8.68134 13.3685 8.07467 13.3685H12.9747C13.7272 13.3685 14.3222 12.7327 14.2638 11.9802L13.6863 4.03516Z" fill="#C37D16"/>
<path d="M7.53156 1.84262C7.58989 1.60929 7.44406 1.37012 7.21073 1.31179C6.97739 1.25929 6.73823 1.39929 6.67989 1.63262L6.38823 2.84012H7.28656L7.53156 1.84262Z" fill="#C37D16"/>
<path d="M11.3821 1.82448C11.4346 1.58531 11.283 1.35781 11.0438 1.30531C10.8105 1.25281 10.5771 1.40448 10.5246 1.64364L10.2621 2.85114H11.1605L11.3821 1.82448Z" fill="#C37D16"/>
<path d="M13.5804 3.64482C13.3879 3.17815 12.9329 2.84565 12.3729 2.84565H11.1596L10.8329 4.35648C10.7863 4.56065 10.6054 4.70065 10.4071 4.70065C10.3779 4.70065 10.3429 4.70065 10.3138 4.68898C10.0804 4.63648 9.92878 4.40315 9.97545 4.16982L10.2613 2.83982H7.28628L6.91878 4.35648C6.87211 4.55482 6.69128 4.68898 6.49295 4.68898C6.45795 4.68898 6.42295 4.68315 6.38795 4.67732C6.15461 4.61898 6.00878 4.38565 6.06711 4.14648L6.38211 2.83398H5.19795C4.62628 2.83398 4.11878 3.20732 3.94961 3.75565L1.49378 11.6598C1.23711 12.5057 1.86128 13.369 2.74211 13.369H10.4071C11.0138 13.369 11.5388 12.9607 11.6788 12.3715L13.6446 4.47898C13.6796 4.33315 13.6913 4.18732 13.6796 4.04732C13.6679 3.90732 13.6388 3.76732 13.5804 3.64482ZM9.42711 10.3065H4.76045C4.52128 10.3065 4.32295 10.1082 4.32295 9.86898C4.32295 9.62982 4.52128 9.43148 4.76045 9.43148H9.42711C9.66628 9.43148 9.86461 9.62982 9.86461 9.86898C9.86461 10.1082 9.66628 10.3065 9.42711 10.3065ZM10.0104 7.97315H5.34378C5.10461 7.97315 4.90628 7.77482 4.90628 7.53565C4.90628 7.29648 5.10461 7.09815 5.34378 7.09815H10.0104C10.2496 7.09815 10.4479 7.29648 10.4479 7.53565C10.4479 7.77482 10.2496 7.97315 10.0104 7.97315Z" fill="#C37D16"/>
</svg>
