<svg width="41" height="40" viewBox="0 0 41 40" fill="none" xmlns="http://www.w3.org/2000/svg">
<path d="M13.8335 3.3335V8.3335" stroke="#1E1E1E" stroke-width="2.5" stroke-miterlimit="10" stroke-linecap="round" stroke-linejoin="round"/>
<path d="M27.1665 3.3335V8.3335" stroke="#1E1E1E" stroke-width="2.5" stroke-miterlimit="10" stroke-linecap="round" stroke-linejoin="round"/>
<path d="M30.8333 35.6667C33.7788 35.6667 36.1667 33.2789 36.1667 30.3334C36.1667 27.3878 33.7788 25 30.8333 25C27.8878 25 25.5 27.3878 25.5 30.3334C25.5 33.2789 27.8878 35.6667 30.8333 35.6667Z" stroke="#1E1E1E" stroke-width="2.5" stroke-linecap="round" stroke-linejoin="round"/>
<path d="M37.1667 36.6667L35.5 35" stroke="#1E1E1E" stroke-width="2.5" stroke-linecap="round" stroke-linejoin="round"/>
<path d="M6.3335 15.1499H34.6668" stroke="#1E1E1E" stroke-width="2.5" stroke-miterlimit="10" stroke-linecap="round" stroke-linejoin="round"/>
<path d="M22.7833 36.6668H13.8333C8 36.6668 5.5 33.3335 5.5 28.3335V14.1668C5.5 9.16683 8 5.8335 13.8333 5.8335H27.1667C33 5.8335 35.5 9.16683 35.5 14.1668V21.6668" stroke="#1E1E1E" stroke-width="2.5" stroke-miterlimit="10" stroke-linecap="round" stroke-linejoin="round"/>
<path d="M20.4921 22.8338H20.5071" stroke="#1E1E1E" stroke-width="3.33333" stroke-linecap="round" stroke-linejoin="round"/>
<path d="M14.3242 22.8338H14.3391" stroke="#1E1E1E" stroke-width="3.33333" stroke-linecap="round" stroke-linejoin="round"/>
<path d="M14.3242 27.8338H14.3391" stroke="#1E1E1E" stroke-width="3.33333" stroke-linecap="round" stroke-linejoin="round"/>
</svg>
