<svg width="20" height="20" viewBox="0 0 20 20" fill="none" xmlns="http://www.w3.org/2000/svg">
<path d="M18.275 5.63333L15.4667 16.9084C15.2667 17.75 14.5167 18.3333 13.65 18.3333H2.70003C1.44169 18.3333 0.541706 17.0999 0.916706 15.8916L4.42503 4.62503C4.6667 3.8417 5.39171 3.29996 6.20838 3.29996H16.4584C17.25 3.29996 17.9084 3.78329 18.1834 4.44996C18.3417 4.80829 18.375 5.21666 18.275 5.63333Z" stroke="#1E1E1E" stroke-width="1.2" stroke-miterlimit="10"/>
<path d="M13.3334 18.3333H17.3167C18.3917 18.3333 19.2334 17.425 19.1584 16.35L18.3334 5" stroke="#1E1E1E" stroke-width="1.2" stroke-miterlimit="10" stroke-linecap="round" stroke-linejoin="round"/>
<path d="M8.06665 5.31666L8.93332 1.71671" stroke="#1E1E1E" stroke-width="1.2" stroke-miterlimit="10" stroke-linecap="round" stroke-linejoin="round"/>
<path d="M13.65 5.32501L14.4334 1.70837" stroke="#1E1E1E" stroke-width="1.2" stroke-miterlimit="10" stroke-linecap="round" stroke-linejoin="round"/>
<path d="M6.41663 10H13.0833" stroke="#1E1E1E" stroke-width="1.2" stroke-miterlimit="10" stroke-linecap="round" stroke-linejoin="round"/>
<path d="M5.58337 13.3333H12.25" stroke="#1E1E1E" stroke-width="1.2" stroke-miterlimit="10" stroke-linecap="round" stroke-linejoin="round"/>
</svg>
