<svg width="17" height="17" viewBox="0 0 17 17" fill="none" xmlns="http://www.w3.org/2000/svg">
<path d="M8.47118 0.880371C4.03926 0.880371 0.413147 4.49843 0.413147 8.95452C0.413147 12.9835 3.36239 16.3276 7.21413 16.932V11.2914H5.16739V8.95452H7.21413V7.1737C7.21413 5.15113 8.41478 4.03912 10.2601 4.03912C11.1384 4.03912 12.057 4.19222 12.057 4.19222V6.18256H11.0417C10.0425 6.18256 9.72824 6.80303 9.72824 7.43961V8.95452H11.9684L11.6058 11.2914H9.72824V16.932C11.6271 16.6321 13.3561 15.6633 14.6033 14.2004C15.8504 12.7375 16.5335 10.8769 16.5292 8.95452C16.5292 4.49843 12.9031 0.880371 8.47118 0.880371Z" fill="#1877F2"/>
</svg>
