<svg width="24" height="24" viewBox="0 0 24 24" fill="none" xmlns="http://www.w3.org/2000/svg">
<path d="M14.97 22.75H8.96997C3.53997 22.75 1.21997 20.43 1.21997 15V9C1.21997 3.57 3.53997 1.25 8.96997 1.25H14.97C20.4 1.25 22.72 3.57 22.72 9V15C22.72 20.43 20.41 22.75 14.97 22.75ZM8.96997 2.75C4.35997 2.75 2.71997 4.39 2.71997 9V15C2.71997 19.61 4.35997 21.25 8.96997 21.25H14.97C19.58 21.25 21.22 19.61 21.22 15V9C21.22 4.39 19.58 2.75 14.97 2.75H8.96997Z" fill="#AFAFAF"/>
<path d="M11.4479 16.8C11.207 16.8 10.6249 16.7344 10.2836 16.0994L9.13936 13.9975C8.97876 13.6982 8.40664 13.4209 7.97504 13.4209L1.95274 13.4355C1.54122 13.4355 1.19995 13.1947 1.19995 12.8881C1.19995 12.5889 1.53118 12.3407 1.95274 12.3407L7.97504 12.3262H7.98508C9.03898 12.3262 10.1631 12.8808 10.5546 13.5961L11.468 15.2747L13.5356 11.4649C13.8468 10.8957 14.3988 10.8154 14.6297 10.8008C14.8605 10.7935 15.4226 10.83 15.8141 11.3701L16.8579 12.8078C17.0386 13.056 17.5806 13.2968 17.9721 13.2968H22.0472C22.4587 13.2968 22.7999 13.545 22.7999 13.8442C22.7999 14.1434 22.4587 14.3916 22.0472 14.3916H17.9721C17.0185 14.3916 15.9747 13.9318 15.533 13.3187L14.7501 12.2386L12.6423 16.0994C12.271 16.7271 11.6788 16.8 11.4479 16.8Z" fill="#AFAFAF"/>
</svg>
