<svg width="22" height="21" viewBox="0 0 22 21" fill="none" xmlns="http://www.w3.org/2000/svg">
<path d="M1.56543 8.06055H12.2681" stroke="white" stroke-width="1.5" stroke-miterlimit="10" stroke-linecap="round" stroke-linejoin="round"/>
<path d="M5.45752 15.8447H7.40347" stroke="white" stroke-width="1.5" stroke-miterlimit="10" stroke-linecap="round" stroke-linejoin="round"/>
<path d="M9.83594 15.8447H13.7278" stroke="white" stroke-width="1.5" stroke-miterlimit="10" stroke-linecap="round" stroke-linejoin="round"/>
<path d="M21.0249 10.8147V15.4655C21.0249 18.8806 20.1589 19.7368 16.7049 19.7368H5.88543C2.43138 19.7368 1.56543 18.8806 1.56543 15.4655V7.46765C1.56543 4.05252 2.43138 3.19629 5.88543 3.19629H12.5406" stroke="white" stroke-width="1.5" stroke-linecap="round" stroke-linejoin="round"/>
<path d="M16.1602 2.95215H19.2056C19.8769 2.95215 20.4218 3.56512 20.4218 4.16836C20.4218 4.83972 19.8769 5.38458 19.2056 5.38458H16.1602V2.95215Z" stroke="white" stroke-width="1.5" stroke-miterlimit="10" stroke-linecap="round" stroke-linejoin="round"/>
<path d="M16.1602 5.38477H19.6337C20.4023 5.38477 21.025 5.92963 21.025 6.60098C21.025 7.27233 20.4023 7.8172 19.6337 7.8172H16.1602V5.38477Z" stroke="white" stroke-width="1.5" stroke-miterlimit="10" stroke-linecap="round" stroke-linejoin="round"/>
<path d="M17.8726 7.81738V9.0336" stroke="white" stroke-width="1.5" stroke-miterlimit="10" stroke-linecap="round" stroke-linejoin="round"/>
<path d="M17.8726 1.73633V2.95254" stroke="white" stroke-width="1.5" stroke-miterlimit="10" stroke-linecap="round" stroke-linejoin="round"/>
<path d="M17.3178 2.95215H15.187" stroke="white" stroke-width="1.5" stroke-miterlimit="10" stroke-linecap="round" stroke-linejoin="round"/>
<path d="M17.3178 7.81738H15.187" stroke="white" stroke-width="1.5" stroke-miterlimit="10" stroke-linecap="round" stroke-linejoin="round"/>
</svg>
