<svg width="20" height="21" viewBox="0 0 20 21" fill="none" xmlns="http://www.w3.org/2000/svg">
<path d="M17.8724 8.97987H17.2234V8.94643H9.97112V12.1696H14.5251C13.8607 14.046 12.0755 15.3929 9.97112 15.3929C7.30109 15.3929 5.1363 13.2281 5.1363 10.558C5.1363 7.88801 7.30109 5.72321 9.97112 5.72321C11.2036 5.72321 12.3249 6.18816 13.1786 6.94763L15.4578 4.66842C14.0187 3.32716 12.0936 2.5 9.97112 2.5C5.52107 2.5 1.91309 6.10799 1.91309 10.558C1.91309 15.0081 5.52107 18.6161 9.97112 18.6161C14.4212 18.6161 18.0292 15.0081 18.0292 10.558C18.0292 10.0177 17.9736 9.49035 17.8724 8.97987Z" fill="#FFC107"/>
<path d="M2.84204 6.80742L5.48951 8.74901C6.20587 6.97543 7.94076 5.72321 9.97098 5.72321C11.2035 5.72321 12.3247 6.18816 13.1785 6.94763L15.4577 4.66842C14.0185 3.32716 12.0935 2.5 9.97098 2.5C6.87589 2.5 4.19176 4.24738 2.84204 6.80742Z" fill="#FF3D00"/>
<path d="M9.97121 18.6166C12.0526 18.6166 13.9438 17.82 15.3737 16.5247L12.8798 14.4143C12.0436 15.0502 11.0218 15.3942 9.97121 15.3934C7.87532 15.3934 6.0957 14.0569 5.42527 12.1919L2.79755 14.2165C4.13115 16.8261 6.83946 18.6166 9.97121 18.6166Z" fill="#4CAF50"/>
<path d="M17.8724 8.97973H17.2234V8.94629H9.97113V12.1695H14.5251C14.2073 13.0625 13.6349 13.8428 12.8785 14.4141L12.8797 14.4133L15.3736 16.5237C15.1972 16.684 18.0292 14.5869 18.0292 10.5579C18.0292 10.0176 17.9736 9.49021 17.8724 8.97973Z" fill="#1976D2"/>
</svg>
