<svg width="16" height="17" viewBox="0 0 16 17" fill="none" xmlns="http://www.w3.org/2000/svg">
<path fill-rule="evenodd" clip-rule="evenodd" d="M14.14 6.05815V11.4922C14.14 13.5055 12.88 14.9255 10.8667 14.9255H5.10004C3.08671 14.9255 1.83337 13.5055 1.83337 11.4922V6.05815C1.83337 4.04482 3.09337 2.62549 5.10004 2.62549H10.8667C12.88 2.62549 14.14 4.04482 14.14 6.05815Z" stroke="#B2B2B2" stroke-width="1.2" stroke-linecap="round" stroke-linejoin="round"/>
<path d="M3.52087 11.7459L4.53954 10.6706C4.89354 10.2952 5.48354 10.2772 5.85954 10.6306C5.87087 10.6419 6.48421 11.2652 6.48421 11.2652C6.85421 11.6419 7.45887 11.6479 7.83554 11.2786C7.86021 11.2546 9.39154 9.39724 9.39154 9.39724C9.78621 8.91791 10.4949 8.84924 10.9749 9.24457C11.0069 9.27124 12.4535 10.7559 12.4535 10.7559" stroke="#B2B2B2" stroke-width="1.2" stroke-linecap="round" stroke-linejoin="round"/>
<path fill-rule="evenodd" clip-rule="evenodd" d="M6.87517 6.88076C6.87517 7.52676 6.35183 8.05009 5.70583 8.05009C5.05983 8.05009 4.5365 7.52676 4.5365 6.88076C4.5365 6.23476 5.05983 5.71143 5.70583 5.71143C6.35183 5.71209 6.87517 6.23476 6.87517 6.88076Z" stroke="#B2B2B2" stroke-width="1.2" stroke-linecap="round" stroke-linejoin="round"/>
</svg>
