<svg width="15" height="15" viewBox="0 0 15 15" fill="none" xmlns="http://www.w3.org/2000/svg">
<path d="M9.27289 13.3692C9.23789 13.3692 9.19706 13.3634 9.16206 13.3517C7.98956 13.0192 6.75873 13.0192 5.58623 13.3517C5.37039 13.41 5.14289 13.2875 5.08456 13.0717C5.02039 12.8559 5.14873 12.6284 5.36456 12.57C6.68289 12.1967 8.07123 12.1967 9.38956 12.57C9.60539 12.6342 9.73373 12.8559 9.66956 13.0717C9.61123 13.2525 9.44789 13.3692 9.27289 13.3692Z" fill="#E06847"/>
<path d="M11.578 4.24504C10.9713 3.02004 9.7988 2.11587 8.43963 1.81837C7.0163 1.50337 5.55797 1.84171 4.4438 2.74004C3.3238 3.63254 2.68797 4.96837 2.68797 6.39754C2.68797 7.90837 3.59213 9.48921 4.95713 10.405V10.8892C4.9513 11.0525 4.94547 11.3034 5.1438 11.5075C5.34797 11.7175 5.6513 11.7409 5.89047 11.7409H8.88297C9.19797 11.7409 9.43713 11.6534 9.60046 11.49C9.82213 11.2625 9.8163 10.9709 9.81047 10.8134V10.405C11.6188 9.18587 12.7563 6.61337 11.578 4.24504ZM8.37547 7.31337L7.7513 8.39837C7.66963 8.53837 7.5238 8.62004 7.37213 8.62004C7.2963 8.62004 7.22047 8.60254 7.1563 8.56171C6.9463 8.43921 6.8763 8.17087 6.99297 7.96671L7.4888 7.10337H6.9988C6.70713 7.10337 6.46796 6.97504 6.33963 6.75921C6.2113 6.53754 6.22297 6.26921 6.3688 6.01254L6.99297 4.92754C7.11547 4.71754 7.3838 4.64754 7.58797 4.76421C7.79797 4.88671 7.86796 5.15504 7.7513 5.35921L7.25547 6.22254H7.74547C8.03713 6.22254 8.2763 6.35087 8.40463 6.56671C8.53297 6.78837 8.5213 7.06254 8.37547 7.31337Z" fill="#E06847"/>
</svg>
