<svg width="15" height="14" viewBox="0 0 15 14" fill="none" xmlns="http://www.w3.org/2000/svg">
<path d="M2.5 8.05C2.5 7.30549 2.5 6.93323 2.59789 6.63197C2.79572 6.02309 3.27309 5.54572 3.88197 5.34789C4.18323 5.25 4.55549 5.25 5.3 5.25H9.03333C9.77785 5.25 10.1501 5.25 10.4514 5.34789C11.0602 5.54572 11.5376 6.02309 11.7354 6.63197C11.8333 6.93323 11.8333 7.30549 11.8333 8.05V8.05C11.8333 9.16677 11.8333 9.72515 11.6865 10.1771C11.3897 11.0904 10.6737 11.8064 9.76038 12.1032C9.30849 12.25 8.7501 12.25 7.63333 12.25H6.7C5.58323 12.25 5.02485 12.25 4.57295 12.1032C3.65964 11.8064 2.94358 11.0904 2.64683 10.1771C2.5 9.72515 2.5 9.16677 2.5 8.05V8.05Z" stroke="#1E1E1E"/>
<path d="M9.50004 4.66667V4.08333C9.50004 2.79467 8.45537 1.75 7.16671 1.75V1.75C5.87804 1.75 4.83337 2.79467 4.83337 4.08333V4.66667" stroke="#1E1E1E" stroke-linecap="round"/>
<circle cx="7.16667" cy="8.74992" r="1.16667" fill="#1E1E1E"/>
</svg>
