<svg width="20" height="21" viewBox="0 0 20 21" fill="none" xmlns="http://www.w3.org/2000/svg">
<path d="M5.29473 12.5361C3.80356 12.5361 2.59473 13.7449 2.59473 15.2361C2.59473 16.7273 3.80356 17.9361 5.29473 17.9361C5.6103 17.9361 5.91322 17.882 6.19473 17.7825" stroke="white" stroke-width="1.5" stroke-linecap="round" stroke-linejoin="round"/>
<path d="M2.83241 13.9808C1.62676 13.3991 0.794922 12.165 0.794922 10.7367C0.794922 9.64618 1.27978 8.66897 2.04569 8.00879" stroke="white" stroke-width="1.5" stroke-linecap="round" stroke-linejoin="round"/>
<path d="M2.0733 7.9359C1.83423 7.5785 1.69482 7.14879 1.69482 6.68652C1.69482 5.44388 2.70219 4.43652 3.94482 4.43652C4.45144 4.43652 4.91896 4.60396 5.29504 4.88652" stroke="white" stroke-width="1.5" stroke-linecap="round" stroke-linejoin="round"/>
<path d="M5.50884 4.94513C5.37164 4.65426 5.29492 4.32926 5.29492 3.98633C5.29492 2.74369 6.30228 1.73633 7.54492 1.73633C8.78755 1.73633 9.79492 2.74369 9.79492 3.98633V17.9363" stroke="white" stroke-width="1.5" stroke-linecap="round" stroke-linejoin="round"/>
<path d="M6.19482 17.9365C6.19482 18.9307 7.00071 19.7365 7.99482 19.7365C8.98896 19.7365 9.79482 18.9307 9.79482 17.9365" stroke="white" stroke-width="1.5" stroke-linecap="round" stroke-linejoin="round"/>
<path d="M9.79492 6.23633C9.79492 7.72749 11.0037 8.93633 12.4949 8.93633" stroke="white" stroke-width="1.5" stroke-linecap="round" stroke-linejoin="round"/>
<path d="M14.295 12.5361C15.7862 12.5361 16.995 13.7449 16.995 15.2361C16.995 16.7273 15.7862 17.9361 14.295 17.9361C13.9795 17.9361 13.6765 17.882 13.395 17.7825" stroke="white" stroke-width="1.5" stroke-linecap="round" stroke-linejoin="round"/>
<path d="M16.7573 13.9808C17.963 13.3991 18.7948 12.165 18.7948 10.7367C18.7948 9.64618 18.3099 8.66897 17.544 8.00879" stroke="white" stroke-width="1.5" stroke-linecap="round" stroke-linejoin="round"/>
<path d="M17.5167 7.9359C17.7557 7.5785 17.8951 7.14879 17.8951 6.68652C17.8951 5.44388 16.8877 4.43652 15.6451 4.43652C15.1385 4.43652 14.6709 4.60396 14.2949 4.88652" stroke="white" stroke-width="1.5" stroke-linecap="round" stroke-linejoin="round"/>
<path d="M9.79492 3.98633C9.79492 2.74369 10.8023 1.73633 12.0449 1.73633C13.2876 1.73633 14.2949 2.74369 14.2949 3.98633C14.2949 4.32926 14.2182 4.65426 14.081 4.94513" stroke="white" stroke-width="1.5" stroke-linecap="round" stroke-linejoin="round"/>
<path d="M13.3949 17.9365C13.3949 18.9307 12.5891 19.7365 11.5949 19.7365C10.6008 19.7365 9.79492 18.9307 9.79492 17.9365" stroke="white" stroke-width="1.5" stroke-linecap="round" stroke-linejoin="round"/>
</svg>
