<svg width="25" height="24" viewBox="0 0 25 24" fill="none" xmlns="http://www.w3.org/2000/svg">
<path d="M8.23786 13.5618L9.26393 14.5007C9.55179 14.7634 9.71429 15.1308 9.71429 15.5145C9.71429 16.0914 10.1953 16.559 10.7886 16.559H14.2114C14.8047 16.559 15.2857 16.0914 15.2857 15.5145C15.2857 15.1308 15.4491 14.7634 15.7361 14.5007L16.7612 13.5618C18.1931 12.2428 18.9916 10.5086 18.9991 8.70664L19 8.63081C19 5.55143 16.0899 3.01733 12.5 3.01733C8.91014 3.01733 6 5.55143 6 8.63081V8.70664C6.00836 10.5086 6.80786 12.2419 8.23786 13.5618Z" stroke="#AFAFAF" stroke-width="1.2"/>
<path d="M10.6428 18.7256H14.3571M11.2622 20.9825H13.7378" stroke="#AFAFAF" stroke-width="1.2" stroke-linecap="round"/>
</svg>
