<svg width="24" height="24" viewBox="0 0 24 24" fill="none" xmlns="http://www.w3.org/2000/svg">
<path d="M12.0171 19.5751C9.94782 19.5751 7.8785 19.2465 5.91576 18.5892C5.16974 18.3317 4.60135 17.8077 4.35268 17.1239C4.09512 16.44 4.18393 15.6851 4.59247 15.0101L5.6138 13.3138C5.82695 12.9586 6.02234 12.2481 6.02234 11.8307V9.26402C6.02234 5.96022 8.71333 3.26923 12.0171 3.26923C15.3209 3.26923 18.0119 5.96022 18.0119 9.26402V11.8307C18.0119 12.2392 18.2073 12.9586 18.4205 13.3227L19.4329 15.0101C19.8148 15.6496 19.8858 16.4222 19.6283 17.1239C19.3707 17.8255 18.8112 18.3583 18.1096 18.5892C16.1558 19.2465 14.0864 19.5751 12.0171 19.5751ZM12.0171 4.6014C9.45047 4.6014 7.35451 6.68848 7.35451 9.26402V11.8307C7.35451 12.479 7.08808 13.4382 6.75947 13.9977L5.73814 15.694C5.54275 16.0226 5.48947 16.369 5.60492 16.662C5.7115 16.964 5.97793 17.1949 6.34206 17.3192C10.0544 18.5626 13.9887 18.5626 17.7011 17.3192C18.0208 17.2127 18.2695 16.9729 18.3849 16.6532C18.5004 16.3334 18.4737 15.9871 18.2961 15.694L17.2748 13.9977C16.9373 13.4204 16.6797 12.4701 16.6797 11.8218V9.26402C16.6797 6.68848 14.5927 4.6014 12.0171 4.6014Z" fill="#222222"/>
<path d="M13.669 4.84122C13.6069 4.84122 13.5447 4.83234 13.4825 4.81457C13.225 4.74353 12.9763 4.69024 12.7365 4.65471C11.9816 4.55702 11.2534 4.61031 10.5695 4.81457C10.3208 4.89451 10.0544 4.81457 9.88567 4.62807C9.71693 4.44157 9.66364 4.17513 9.76133 3.93534C10.1255 3.00282 11.0136 2.39001 12.026 2.39001C13.0385 2.39001 13.9266 2.99393 14.2907 3.93534C14.3795 4.17513 14.3351 4.44157 14.1664 4.62807C14.0332 4.77017 13.8467 4.84122 13.669 4.84122Z" fill="#222222"/>
<path d="M12.0172 21.6C11.138 21.6 10.2854 21.2448 9.6637 20.6231C9.04201 20.0014 8.68677 19.1488 8.68677 18.2696H10.0189C10.0189 18.7936 10.2321 19.3087 10.6051 19.6817C10.9781 20.0547 11.4932 20.2679 12.0172 20.2679C13.1185 20.2679 14.0155 19.3709 14.0155 18.2696H15.3476C15.3476 20.108 13.8556 21.6 12.0172 21.6Z" fill="#222222"/>
</svg>
