<svg width="21" height="21" viewBox="0 0 21 21" fill="none" xmlns="http://www.w3.org/2000/svg">
<path d="M18.3167 14.6335L15.7084 8.54185C14.825 6.47519 13.2 6.39185 12.1084 8.35852L10.5334 11.2002C9.73335 12.6419 8.24169 12.7669 7.20835 11.4752L7.02502 11.2419C5.95002 9.89185 4.43335 10.0585 3.65835 11.6002L2.22502 14.4752C1.21669 16.4752 2.67502 18.8335 4.90835 18.8335H15.5417C17.7084 18.8335 19.1667 16.6252 18.3167 14.6335Z" stroke="#034CC4" stroke-width="1.2" stroke-linecap="round" stroke-linejoin="round"/>
<path d="M6.05835 7.1665C7.43906 7.1665 8.55835 6.04722 8.55835 4.6665C8.55835 3.28579 7.43906 2.1665 6.05835 2.1665C4.67764 2.1665 3.55835 3.28579 3.55835 4.6665C3.55835 6.04722 4.67764 7.1665 6.05835 7.1665Z" stroke="#034CC4" stroke-width="1.2" stroke-linecap="round" stroke-linejoin="round"/>
</svg>
