<svg width="15" height="15" viewBox="0 0 15 15" fill="none" xmlns="http://www.w3.org/2000/svg">
<path d="M1.92582 11.6247L1.91415 11.6364C1.75665 11.2922 1.65749 10.9014 1.61665 10.4697C1.65749 10.8956 1.76832 11.2806 1.92582 11.6247Z" fill="#378FE9"/>
<path d="M5.66986 6.59014C6.43661 6.59014 7.05819 5.96857 7.05819 5.20181C7.05819 4.43505 6.43661 3.81348 5.66986 3.81348C4.9031 3.81348 4.28152 4.43505 4.28152 5.20181C4.28152 5.96857 4.9031 6.59014 5.66986 6.59014Z" fill="#378FE9"/>
<path d="M9.86454 1.70215H4.9762C2.85287 1.70215 1.58704 2.96798 1.58704 5.09132V9.97965C1.58704 10.6155 1.69787 11.1696 1.9137 11.6363C2.41537 12.7446 3.4887 13.3688 4.9762 13.3688H9.86454C11.9879 13.3688 13.2537 12.103 13.2537 9.97965V8.64381V5.09132C13.2537 2.96798 11.9879 1.70215 9.86454 1.70215ZM12.3029 7.82715C11.8479 7.43632 11.1129 7.43632 10.6579 7.82715L8.2312 9.90965C7.7762 10.3005 7.0412 10.3005 6.5862 9.90965L6.38787 9.74632C5.9737 9.38465 5.31454 9.34965 4.84787 9.66465L2.6662 11.1288C2.53787 10.8021 2.46204 10.423 2.46204 9.97965V5.09132C2.46204 3.44632 3.3312 2.57715 4.9762 2.57715H9.86454C11.5095 2.57715 12.3787 3.44632 12.3787 5.09132V7.89131L12.3029 7.82715Z" fill="#378FE9"/>
</svg>
