<svg width="15" height="14" viewBox="0 0 15 14" fill="none" xmlns="http://www.w3.org/2000/svg">
<path d="M7.59312 6.77841C7.57562 6.77841 7.56396 6.77841 7.54646 6.77841C7.51729 6.77258 7.47646 6.77258 7.44146 6.77841C5.74979 6.72591 4.47229 5.39591 4.47229 3.75675C4.47229 2.08841 5.83146 0.729248 7.49979 0.729248C9.16812 0.729248 10.5273 2.08841 10.5273 3.75675C10.5215 5.39591 9.23812 6.72591 7.61062 6.77841C7.60479 6.77841 7.59896 6.77841 7.59312 6.77841ZM7.49979 1.60425C6.31562 1.60425 5.34729 2.57258 5.34729 3.75675C5.34729 4.92341 6.25729 5.86258 7.41812 5.90341C7.44729 5.89758 7.52896 5.89758 7.60479 5.90341C8.74812 5.85091 9.64646 4.91175 9.65229 3.75675C9.65229 2.57258 8.68396 1.60425 7.49979 1.60425Z" fill="#1E1E1E"/>
<path d="M7.59894 13.1541C6.45561 13.1541 5.30644 12.8624 4.43727 12.2791C3.62644 11.7424 3.18311 11.0074 3.18311 10.2083C3.18311 9.40909 3.62644 8.66825 4.43727 8.12575C6.18727 6.96492 9.02227 6.96492 10.7606 8.12575C11.5656 8.66242 12.0148 9.39742 12.0148 10.1966C12.0148 10.9958 11.5714 11.7366 10.7606 12.2791C9.88561 12.8624 8.74227 13.1541 7.59894 13.1541ZM4.92144 8.86075C4.36144 9.23409 4.05811 9.71242 4.05811 10.2141C4.05811 10.7099 4.36727 11.1883 4.92144 11.5558C6.37394 12.5299 8.82394 12.5299 10.2764 11.5558C10.8364 11.1824 11.1398 10.7041 11.1398 10.2024C11.1398 9.70658 10.8306 9.22825 10.2764 8.86075C8.82394 7.89242 6.37394 7.89242 4.92144 8.86075Z" fill="#1E1E1E"/>
</svg>
