<svg width="20" height="20" viewBox="0 0 20 20" fill="none" xmlns="http://www.w3.org/2000/svg">
<path d="M10 10.0003C12.3012 10.0003 14.1667 8.13485 14.1667 5.83366C14.1667 3.53247 12.3012 1.66699 10 1.66699C7.69882 1.66699 5.83334 3.53247 5.83334 5.83366C5.83334 8.13485 7.69882 10.0003 10 10.0003Z" stroke="#252525" stroke-width="1.25" stroke-linecap="round" stroke-linejoin="round"/>
<path d="M16.0085 13.1162L13.0585 16.0662C12.9418 16.1829 12.8335 16.3995 12.8085 16.5579L12.6502 17.6828C12.5919 18.0912 12.8752 18.3745 13.2835 18.3162L14.4085 18.1579C14.5668 18.1329 14.7919 18.0245 14.9002 17.9079L17.8502 14.9579C18.3585 14.4495 18.6002 13.8579 17.8502 13.1079C17.1085 12.3662 16.5169 12.6079 16.0085 13.1162Z" stroke="#252525" stroke-width="1.25" stroke-miterlimit="10" stroke-linecap="round" stroke-linejoin="round"/>
<path d="M15.5837 13.541C15.8337 14.441 16.5336 15.141 17.4336 15.391" stroke="#252525" stroke-width="1.25" stroke-miterlimit="10" stroke-linecap="round" stroke-linejoin="round"/>
<path d="M2.8418 18.3333C2.8418 15.1083 6.05015 12.5 10.0002 12.5C10.8668 12.5 11.7001 12.625 12.4751 12.8583" stroke="#252525" stroke-width="1.25" stroke-linecap="round" stroke-linejoin="round"/>
</svg>
