<svg width="15" height="14" viewBox="0 0 15 14" fill="none" xmlns="http://www.w3.org/2000/svg">
<path d="M5.6765 6.77841C5.659 6.77841 5.64733 6.77841 5.62983 6.77841C5.60066 6.77258 5.55983 6.77258 5.52483 6.77841C3.83316 6.72591 2.55566 5.39591 2.55566 3.75675C2.55566 2.08841 3.91483 0.729248 5.58316 0.729248C7.2515 0.729248 8.61066 2.08841 8.61066 3.75675C8.60483 5.39591 7.3215 6.72591 5.694 6.77841C5.68816 6.77841 5.68233 6.77841 5.6765 6.77841ZM5.58316 1.60425C4.399 1.60425 3.43066 2.57258 3.43066 3.75675C3.43066 4.92341 4.34066 5.86258 5.5015 5.90341C5.5365 5.89758 5.61233 5.89758 5.68816 5.90341C6.8315 5.85091 7.72983 4.91175 7.73566 3.75675C7.73566 2.57258 6.76733 1.60425 5.58316 1.60425Z" fill="white"/>
<path d="M9.98151 6.85408C9.96401 6.85408 9.94651 6.85408 9.92901 6.84825C9.68984 6.87158 9.44484 6.70242 9.42151 6.46325C9.39817 6.22409 9.54401 6.00825 9.78317 5.97908C9.85317 5.97325 9.92901 5.97325 9.99317 5.97325C10.8448 5.92659 11.5098 5.22659 11.5098 4.36909C11.5098 3.48242 10.7923 2.76492 9.90567 2.76492C9.66651 2.77075 9.46817 2.57242 9.46817 2.33325C9.46817 2.09409 9.66651 1.89575 9.90567 1.89575C11.2707 1.89575 12.3848 3.00992 12.3848 4.37492C12.3848 5.71659 11.3348 6.80159 9.99901 6.85408C9.99317 6.85408 9.98734 6.85408 9.98151 6.85408Z" fill="white"/>
<path d="M5.68231 13.1541C4.53898 13.1541 3.38981 12.8624 2.52065 12.2791C1.70981 11.7424 1.26648 11.0074 1.26648 10.2083C1.26648 9.40909 1.70981 8.66825 2.52065 8.12575C4.27065 6.96492 7.10565 6.96492 8.84398 8.12575C9.64898 8.66242 10.0981 9.39742 10.0981 10.1966C10.0981 10.9958 9.65481 11.7366 8.84398 12.2791C7.96898 12.8624 6.82565 13.1541 5.68231 13.1541ZM3.00481 8.86075C2.44481 9.23409 2.14148 9.71242 2.14148 10.2141C2.14148 10.7099 2.45065 11.1883 3.00481 11.5558C4.45731 12.5299 6.90731 12.5299 8.35981 11.5558C8.91981 11.1824 9.22315 10.7041 9.22315 10.2024C9.22315 9.70658 8.91398 9.22825 8.35981 8.86075C6.90731 7.89242 4.45731 7.89242 3.00481 8.86075Z" fill="white"/>
<path d="M11.0314 12.1042C10.8273 12.1042 10.6464 11.9642 10.6056 11.7542C10.5589 11.515 10.7106 11.2875 10.9439 11.235C11.3114 11.1592 11.6498 11.0133 11.9123 10.8092C12.2448 10.5583 12.4256 10.2433 12.4256 9.91084C12.4256 9.57834 12.2448 9.26334 11.9181 9.01834C11.6614 8.82001 11.3406 8.68001 10.9614 8.59251C10.7281 8.54001 10.5764 8.30668 10.6289 8.06751C10.6814 7.83418 10.9148 7.68251 11.1539 7.73501C11.6556 7.84584 12.0931 8.04418 12.4489 8.31834C12.9914 8.72668 13.3006 9.30418 13.3006 9.91084C13.3006 10.5175 12.9856 11.095 12.4431 11.5092C12.0814 11.7892 11.6264 11.9933 11.1248 12.0925C11.0898 12.1042 11.0606 12.1042 11.0314 12.1042Z" fill="white"/>
</svg>
