<svg width="20" height="21" viewBox="0 0 20 21" fill="none" xmlns="http://www.w3.org/2000/svg">
<path d="M16.6666 7.4587L17.197 7.98903L17.7273 7.4587L17.197 6.92837L16.6666 7.4587ZM12.5 17.3754C12.9142 17.3754 13.25 17.0396 13.25 16.6254C13.25 16.2112 12.9142 15.8754 12.5 15.8754L12.5 17.3754ZM13.0303 12.1557L17.197 7.98903L16.1363 6.92837L11.9696 11.095L13.0303 12.1557ZM17.197 6.92837L13.0303 2.7617L11.9696 3.82236L16.1363 7.98903L17.197 6.92837ZM16.6666 6.7087L7.91662 6.7087L7.91662 8.2087L16.6666 8.2087L16.6666 6.7087ZM7.91663 17.3754L12.5 17.3754L12.5 15.8754L7.91663 15.8754L7.91663 17.3754ZM2.58329 12.042C2.58329 14.9876 4.97111 17.3754 7.91663 17.3754L7.91663 15.8754C5.79953 15.8754 4.08329 14.1591 4.08329 12.042L2.58329 12.042ZM7.91662 6.7087C4.9711 6.7087 2.58329 9.09651 2.58329 12.042L4.08329 12.042C4.08329 9.92494 5.79953 8.2087 7.91662 8.2087L7.91662 6.7087Z" fill="#888888"/>
</svg>
