<svg width="16" height="14" viewBox="0 0 16 14" fill="none" xmlns="http://www.w3.org/2000/svg">
<path d="M1.49906 2.62335L3.71649 6.50386C3.85491 6.7461 3.92412 6.86722 3.92412 7C3.92412 7.13278 3.85491 7.2539 3.71649 7.49614L1.49906 11.3767C0.879904 12.4602 0.570328 13.0019 0.81174 13.2706C1.05315 13.5392 1.62481 13.2891 2.76812 12.7889L13.9059 7.91616C14.8037 7.52339 15.2526 7.32701 15.2526 7C15.2526 6.67299 14.8037 6.47661 13.9059 6.08384L2.76812 1.21105C1.62481 0.710853 1.05315 0.460754 0.81174 0.729414C0.570328 0.998074 0.879904 1.53983 1.49906 2.62335Z" fill="white"/>
</svg>
