<svg width="17" height="16" viewBox="0 0 17 16" fill="none" xmlns="http://www.w3.org/2000/svg">
<path d="M8.72732 1.33301C5.76336 1.33301 3.08455 3.04227 3.40831 7.04264C3.40371 7.13949 3.39399 7.23334 3.39399 7.33301C3.39399 7.4615 3.42586 7.62244 3.43566 7.764C3.04952 8.05281 2.72733 8.44446 2.72733 8.99967C2.72733 9.78185 3.31062 10.3372 4.03592 10.5179C4.43295 11.5502 4.9907 12.5215 5.72863 13.2679C6.54096 14.0896 7.57177 14.6663 8.72732 14.6663C9.0559 14.6663 9.52914 14.6129 9.97732 14.5622C10.4255 14.5114 10.8133 14.4606 10.8133 14.4606L10.6414 13.139C10.6414 13.139 10.2627 13.1874 9.82758 13.2367C9.39244 13.2859 8.86542 13.333 8.72732 13.333C8.01621 13.333 7.31421 12.9754 6.67654 12.3304C6.03888 11.6854 5.49596 10.7658 5.15831 9.78353L5.00337 9.33301H4.39399C4.24955 9.33301 4.06066 9.14412 4.06066 8.99967C4.06066 8.85047 4.14882 8.76195 4.338 8.69889L4.92394 8.50358L4.7742 7.90462C4.72656 7.71405 4.72733 7.59967 4.72733 7.33301C4.72733 7.03826 4.75082 6.77507 4.79113 6.53353C5.55427 5.94626 6.16852 6.43955 7.12706 4.93327C8.13114 6.75886 10.9154 5.61795 12.5724 6.12728C12.6722 6.46758 12.7273 6.86297 12.7273 7.33301V10.6663H13.1974C13.1617 10.8426 13.125 10.9887 13.0893 11.1064C13.0506 11.2343 13.0287 11.264 12.9982 11.333H10.0034C9.93444 11.1381 9.80677 10.9693 9.63795 10.8499C9.46912 10.7305 9.26744 10.6664 9.06066 10.6663C8.79544 10.6663 8.54109 10.7717 8.35355 10.9592C8.16601 11.1468 8.06066 11.4011 8.06066 11.6663C8.06066 11.9316 8.16601 12.1859 8.35355 12.3734C8.54109 12.561 8.79544 12.6663 9.06066 12.6663C9.12094 12.6661 9.18108 12.6605 9.24035 12.6494C9.29073 12.661 9.34229 12.6667 9.39399 12.6663H13.394C13.5588 12.6666 13.7179 12.6059 13.8406 12.4958C13.8406 12.4958 13.979 12.3525 14.0724 12.1937C14.1658 12.0349 14.269 11.8111 14.3653 11.4932C14.4388 11.2507 14.5047 10.9321 14.5633 10.5661C15.0494 10.3666 15.394 9.88877 15.394 9.33301V7.99967C15.394 7.26634 14.794 6.66634 14.0607 6.66634H14.0568C14.1569 2.93084 11.5982 1.33301 8.72732 1.33301ZM7.06066 7.33301C6.79544 7.33301 6.54109 7.43836 6.35355 7.6259C6.16601 7.81344 6.06066 8.06779 6.06066 8.33301C6.06066 8.59822 6.16601 8.85258 6.35355 9.04011C6.54109 9.22765 6.79544 9.33301 7.06066 9.33301C7.32587 9.33301 7.58023 9.22765 7.76777 9.04011C7.9553 8.85258 8.06066 8.59822 8.06066 8.33301C8.06066 8.06779 7.9553 7.81344 7.76777 7.6259C7.58023 7.43836 7.32587 7.33301 7.06066 7.33301ZM10.394 7.33301C10.1288 7.33301 9.87442 7.43836 9.68688 7.6259C9.49935 7.81344 9.39399 8.06779 9.39399 8.33301C9.39399 8.59822 9.49935 8.85258 9.68688 9.04011C9.87442 9.22765 10.1288 9.33301 10.394 9.33301C10.6592 9.33301 10.9136 9.22765 11.1011 9.04011C11.2886 8.85258 11.394 8.59822 11.394 8.33301C11.394 8.06779 11.2886 7.81344 11.1011 7.6259C10.9136 7.43836 10.6592 7.33301 10.394 7.33301Z" fill="#6709F5"/>
</svg>
