<svg width="15" height="15" viewBox="0 0 15 15" fill="none" xmlns="http://www.w3.org/2000/svg">
<path d="M10.3427 1.70117H5.45438C3.33104 1.70117 2.06521 2.96701 2.06521 5.09034V9.97284C2.06521 12.102 3.33104 13.3678 5.45438 13.3678H10.3369C12.4602 13.3678 13.726 12.102 13.726 9.97867V5.09034C13.7319 2.96701 12.466 1.70117 10.3427 1.70117ZM9.45021 8.54367L8.70354 8.97534L7.95688 9.407C6.99438 9.96117 6.20688 9.50617 6.20688 8.39784V7.5345V6.67117C6.20688 5.55701 6.99438 5.10784 7.95688 5.662L8.70354 6.09367L9.45021 6.52534C10.4127 7.07951 10.4127 7.9895 9.45021 8.54367Z" fill="#5F9B41"/>
</svg>
