<svg width="21" height="21" viewBox="0 0 21 21" fill="none" xmlns="http://www.w3.org/2000/svg">
<path d="M11.1916 17.5167H5.92496C3.29163 17.5167 2.41663 15.7667 2.41663 14.0084V6.99173C2.41663 4.3584 3.29163 3.4834 5.92496 3.4834H11.1916C13.825 3.4834 14.7 4.3584 14.7 6.99173V14.0084C14.7 16.6417 13.8166 17.5167 11.1916 17.5167Z" stroke="#00B109" stroke-width="1.2" stroke-linecap="round" stroke-linejoin="round"/>
<path d="M17.0166 14.7501L14.7 13.1251V7.86678L17.0166 6.24178C18.15 5.45011 19.0833 5.93344 19.0833 7.32511V13.6751C19.0833 15.0668 18.15 15.5501 17.0166 14.7501Z" stroke="#00B109" stroke-width="1.2" stroke-linecap="round" stroke-linejoin="round"/>
<path d="M10.3334 9.6665C11.0237 9.6665 11.5834 9.10686 11.5834 8.4165C11.5834 7.72615 11.0237 7.1665 10.3334 7.1665C9.64302 7.1665 9.08337 7.72615 9.08337 8.4165C9.08337 9.10686 9.64302 9.6665 10.3334 9.6665Z" stroke="#00B109" stroke-width="1.2" stroke-linecap="round" stroke-linejoin="round"/>
</svg>
